<svg width="1200" height="260" viewBox="0 0 1200 260" fill="none" xmlns="http://www.w3.org/2000/svg">
<g clip-path="url(#clip0_24_19265)">
<mask id="mask0_24_19265" style="mask-type:alpha" maskUnits="userSpaceOnUse" x="0" y="0" width="1209" height="260">
<rect width="1209" height="260" rx="12" fill="url(#paint0_linear_24_19265)"/>
</mask>
<g mask="url(#mask0_24_19265)">
<path d="M654.465 52.0026L683.296 103.99H625.635L654.465 52.0026Z" fill="#F3F3F3"/>
<path d="M597.461 156.009L626.292 207.996H568.631L597.461 156.009Z" fill="#F3F3F3"/>
<path d="M712.469 156.009L741.299 207.996H683.639L712.469 156.009Z" fill="#F3F3F3"/>
<path d="M482.375 156.009L511.206 207.996H453.545L482.375 156.009Z" fill="#F3F3F3"/>
<path d="M424.83 156.009L453.661 207.996H396L424.83 156.009Z" fill="#F3F3F3"/>
<path d="M539.918 52.1729L568.749 104.161H511.088L539.918 52.1729Z" fill="#F3F3F3"/>
<path d="M424.83 52.0028L453.661 103.991H396L424.83 52.0028Z" fill="#F3F3F3"/>
<path d="M683.178 103.99L654.347 52.0025L712.008 52.0025L683.178 103.99Z" fill="#EAEAE9"/>
<path d="M626.174 207.996L597.343 156.009L655.004 156.009L626.174 207.996Z" fill="#EAEAE9"/>
<path d="M741.181 207.996L712.351 156.009L770.012 156.009L741.181 207.996Z" fill="#EAEAE9"/>
<path d="M511.09 207.996L482.259 156.009L539.92 156.009L511.09 207.996Z" fill="#EAEAE9"/>
<path d="M568.631 104.161L539.8 52.1729L597.461 52.173L568.631 104.161Z" fill="#EAEAE9"/>
<path d="M453.545 103.991L424.714 52.0028L482.375 52.0028L453.545 103.991Z" fill="#EAEAE9"/>
<path d="M597.461 52.003L568.63 0.0152322L626.291 0.0152373L597.461 52.003Z" fill="#EAEAE9"/>
<path d="M654.67 51.9877L625.839 -0.000127111L683.5 -0.00012207L654.67 51.9877Z" fill="#EAEAE9"/>
<path d="M712.33 51.9878L683.499 -2.7929e-05L741.16 -2.28882e-05L712.33 51.9878Z" fill="#EAEAE9"/>
<path d="M770.011 51.9878L741.181 -2.65609e-05L798.842 -2.152e-05L770.011 51.9878Z" fill="#EAEAE9"/>
<path d="M539.92 52.003L511.089 0.0152322L568.75 0.0152373L539.92 52.003Z" fill="#EAEAE9"/>
<path d="M482.492 52.003L453.662 0.0152322L511.322 0.0152373L482.492 52.003Z" fill="#EAEAE9"/>
<path d="M712.008 52.0026L740.838 103.99H683.178L712.008 52.0026Z" fill="#F3F3F3"/>
<path d="M655.004 156.009L683.835 207.996H626.174L655.004 156.009Z" fill="#F3F3F3"/>
<path d="M770.012 156.009L798.842 207.996H741.182L770.012 156.009Z" fill="#F3F3F3"/>
<path d="M770.012 52.0026L798.842 103.99H741.182L770.012 52.0026Z" fill="#F3F3F3"/>
<path d="M539.918 156.009L568.749 207.996H511.088L539.918 156.009Z" fill="#F3F3F3"/>
<path d="M597.461 52.1729L626.292 104.161H568.631L597.461 52.1729Z" fill="#F3F3F3"/>
<path d="M482.375 52.0028L511.206 103.991H453.545L482.375 52.0028Z" fill="#F3F3F3"/>
<path d="M453.662 0L482.493 51.9878H424.832L453.662 0Z" fill="#F3F3F3"/>
<path d="M511.323 0L540.153 51.9878H482.492L511.323 0Z" fill="#F3F3F3"/>
<path d="M625.805 0L654.635 51.9878H596.975L625.805 0Z" fill="#F3F3F3"/>
<path d="M798.83 0.0121841L827.661 52H770L798.83 0.0121841Z" fill="#F3F3F3"/>
<path d="M712.008 155.993L683.177 104.006L740.838 104.006L712.008 155.993Z" fill="#EAEAE9"/>
<path d="M655.006 260L626.175 208.012L683.836 208.012L655.006 260Z" fill="#EAEAE9"/>
<path d="M770.011 260L741.181 208.012L798.842 208.012L770.011 260Z" fill="#EAEAE9"/>
<path d="M539.838 260L511.007 208.012L568.668 208.012L539.838 260Z" fill="#EAEAE9"/>
<path d="M770.129 155.993L741.298 104.006L798.959 104.006L770.129 155.993Z" fill="#EAEAE9"/>
<path d="M597.461 155.993L568.63 104.006L626.291 104.006L597.461 155.993Z" fill="#EAEAE9"/>
<path d="M482.375 155.994L453.544 104.006L511.205 104.006L482.375 155.994Z" fill="#EAEAE9"/>
<path d="M683.295 104.006L712.126 155.993L654.465 155.993L683.295 104.006Z" fill="#F3F3F3"/>
<path d="M626.291 208.012L655.122 259.999L597.461 259.999L626.291 208.012Z" fill="#F3F3F3"/>
<path d="M741.299 208.012L770.129 260L712.469 260L741.299 208.012Z" fill="#F3F3F3"/>
<path d="M511.205 208.012L540.036 260L482.375 260L511.205 208.012Z" fill="#F3F3F3"/>
<path d="M568.748 104.006L597.579 155.994L539.918 155.994L568.748 104.006Z" fill="#F3F3F3"/>
<path d="M453.662 104.006L482.493 155.994L424.832 155.994L453.662 104.006Z" fill="#F3F3F3"/>
<path d="M683.467 5.04086e-06L712.297 51.9878L654.637 51.9878L683.467 5.04086e-06Z" fill="#F3F3F3"/>
<path d="M741.17 0.0123341L770.001 52.0002L712.34 52.0001L741.17 0.0123341Z" fill="#F3F3F3"/>
<path d="M654.465 155.993L625.634 104.006L683.295 104.006L654.465 155.993Z" fill="#EAEAE9"/>
<path d="M597.461 260L568.63 208.012L626.291 208.012L597.461 260Z" fill="#EAEAE9"/>
<path d="M712.468 260L683.638 208.012L741.299 208.012L712.468 260Z" fill="#EAEAE9"/>
<path d="M482.375 260L453.544 208.012L511.205 208.012L482.375 260Z" fill="#EAEAE9"/>
<path d="M539.918 155.993L511.087 104.006L568.748 104.006L539.918 155.993Z" fill="#EAEAE9"/>
<path d="M424.83 155.994L395.999 104.006L453.66 104.006L424.83 155.994Z" fill="#EAEAE9"/>
<path d="M424.83 52.003L395.999 0.0152322L453.66 0.0152373L424.83 52.003Z" fill="#EAEAE9"/>
<path d="M424.83 260L395.999 208.012L453.66 208.012L424.83 260Z" fill="#EAEAE9"/>
<path d="M252.465 52.0026L281.296 103.99H223.635L252.465 52.0026Z" fill="#F3F3F3"/>
<path d="M195.461 156.009L224.292 207.996H166.631L195.461 156.009Z" fill="#F3F3F3"/>
<path d="M310.469 156.009L339.299 207.996H281.639L310.469 156.009Z" fill="#F3F3F3"/>
<path d="M80.3753 156.009L109.206 207.996H51.5449L80.3753 156.009Z" fill="#F3F3F3"/>
<path d="M22.8304 156.009L51.6607 207.996H-6L22.8304 156.009Z" fill="#F3F3F3"/>
<path d="M137.918 52.1729L166.749 104.161H109.088L137.918 52.1729Z" fill="#F3F3F3"/>
<path d="M22.8304 52.0028L51.6607 103.991H-6L22.8304 52.0028Z" fill="#F3F3F3"/>
<path d="M281.178 103.99L252.347 52.0025L310.008 52.0025L281.178 103.99Z" fill="#EAEAE9"/>
<path d="M224.174 207.996L195.343 156.009L253.004 156.009L224.174 207.996Z" fill="#EAEAE9"/>
<path d="M339.181 207.996L310.351 156.009L368.012 156.009L339.181 207.996Z" fill="#EAEAE9"/>
<path d="M109.09 207.996L80.2593 156.009L137.92 156.009L109.09 207.996Z" fill="#EAEAE9"/>
<path d="M166.631 104.161L137.8 52.1729L195.461 52.173L166.631 104.161Z" fill="#EAEAE9"/>
<path d="M51.5447 103.991L22.7143 52.0028L80.3751 52.0028L51.5447 103.991Z" fill="#EAEAE9"/>
<path d="M195.461 52.003L166.63 0.0152322L224.291 0.0152373L195.461 52.003Z" fill="#EAEAE9"/>
<path d="M252.67 51.9877L223.839 -0.000127111L281.5 -0.00012207L252.67 51.9877Z" fill="#EAEAE9"/>
<path d="M310.33 51.9878L281.499 -2.7929e-05L339.16 -2.28882e-05L310.33 51.9878Z" fill="#EAEAE9"/>
<path d="M368.011 51.9878L339.181 -2.65609e-05L396.842 -2.152e-05L368.011 51.9878Z" fill="#EAEAE9"/>
<path d="M137.92 52.003L109.089 0.0152322L166.75 0.0152373L137.92 52.003Z" fill="#EAEAE9"/>
<path d="M80.492 52.003L51.6616 0.0152322L109.322 0.0152373L80.492 52.003Z" fill="#EAEAE9"/>
<path d="M310.008 52.0026L338.838 103.99H281.178L310.008 52.0026Z" fill="#F3F3F3"/>
<path d="M253.004 156.009L281.835 207.996H224.174L253.004 156.009Z" fill="#F3F3F3"/>
<path d="M368.012 156.009L396.842 207.996H339.182L368.012 156.009Z" fill="#F3F3F3"/>
<path d="M368.012 52.0026L396.842 103.99H339.182L368.012 52.0026Z" fill="#F3F3F3"/>
<path d="M137.918 156.009L166.749 207.996H109.088L137.918 156.009Z" fill="#F3F3F3"/>
<path d="M195.461 52.1729L224.292 104.161H166.631L195.461 52.1729Z" fill="#F3F3F3"/>
<path d="M80.3753 52.0028L109.206 103.991H51.5449L80.3753 52.0028Z" fill="#F3F3F3"/>
<path d="M51.6624 0L80.4928 51.9878H22.832L51.6624 0Z" fill="#F3F3F3"/>
<path d="M109.323 0L138.153 51.9878H80.4922L109.323 0Z" fill="#F3F3F3"/>
<path d="M223.805 0L252.635 51.9878H194.975L223.805 0Z" fill="#F3F3F3"/>
<path d="M396.83 0.0121841L425.661 52H368L396.83 0.0121841Z" fill="#F3F3F3"/>
<path d="M310.008 155.993L281.177 104.006L338.838 104.006L310.008 155.993Z" fill="#EAEAE9"/>
<path d="M253.006 260L224.175 208.012L281.836 208.012L253.006 260Z" fill="#EAEAE9"/>
<path d="M368.011 260L339.181 208.012L396.842 208.012L368.011 260Z" fill="#EAEAE9"/>
<path d="M137.838 260L109.007 208.012L166.668 208.012L137.838 260Z" fill="#EAEAE9"/>
<path d="M368.129 155.993L339.298 104.006L396.959 104.006L368.129 155.993Z" fill="#EAEAE9"/>
<path d="M195.461 155.993L166.63 104.006L224.291 104.006L195.461 155.993Z" fill="#EAEAE9"/>
<path d="M80.3747 155.994L51.5443 104.006L109.205 104.006L80.3747 155.994Z" fill="#EAEAE9"/>
<path d="M281.295 104.006L310.126 155.993L252.465 155.993L281.295 104.006Z" fill="#F3F3F3"/>
<path d="M224.291 208.012L253.122 259.999L195.461 259.999L224.291 208.012Z" fill="#F3F3F3"/>
<path d="M339.299 208.012L368.129 260L310.469 260L339.299 208.012Z" fill="#F3F3F3"/>
<path d="M109.205 208.012L138.036 260L80.3749 260L109.205 208.012Z" fill="#F3F3F3"/>
<path d="M166.748 104.006L195.579 155.994L137.918 155.994L166.748 104.006Z" fill="#F3F3F3"/>
<path d="M51.6623 104.006L80.4927 155.994L22.832 155.994L51.6623 104.006Z" fill="#F3F3F3"/>
<path d="M281.467 5.04086e-06L310.297 51.9878L252.637 51.9878L281.467 5.04086e-06Z" fill="#F3F3F3"/>
<path d="M339.17 0.0123341L368.001 52.0002L310.34 52.0001L339.17 0.0123341Z" fill="#F3F3F3"/>
<path d="M252.465 155.993L223.634 104.006L281.295 104.006L252.465 155.993Z" fill="#EAEAE9"/>
<path d="M195.461 260L166.63 208.012L224.291 208.012L195.461 260Z" fill="#EAEAE9"/>
<path d="M310.468 260L281.638 208.012L339.299 208.012L310.468 260Z" fill="#EAEAE9"/>
<path d="M80.3747 260L51.5443 208.012L109.205 208.012L80.3747 260Z" fill="#EAEAE9"/>
<path d="M137.918 155.993L109.087 104.006L166.748 104.006L137.918 155.993Z" fill="#EAEAE9"/>
<path d="M22.8298 155.994L-6.00058 104.006L51.6602 104.006L22.8298 155.994Z" fill="#EAEAE9"/>
<path d="M22.8298 52.003L-6.00058 0.0152322L51.6602 0.0152373L22.8298 52.003Z" fill="#EAEAE9"/>
<path d="M22.8298 260L-6.00058 208.012L51.6602 208.012L22.8298 260Z" fill="#EAEAE9"/>
<path d="M-5.16963 0.0121841L23.6607 52H-34L-5.16963 0.0121841Z" fill="#F3F3F3"/>
<path d="M1057.47 52.0026L1086.3 103.99H1028.63L1057.47 52.0026Z" fill="#F3F3F3"/>
<path d="M1000.46 156.009L1029.29 207.996H971.631L1000.46 156.009Z" fill="#F3F3F3"/>
<path d="M1115.47 156.009L1144.3 207.996H1086.64L1115.47 156.009Z" fill="#F3F3F3"/>
<path d="M885.375 156.009L914.206 207.996H856.545L885.375 156.009Z" fill="#F3F3F3"/>
<path d="M827.83 156.009L856.661 207.996H799L827.83 156.009Z" fill="#F3F3F3"/>
<path d="M942.918 52.1729L971.749 104.161H914.088L942.918 52.1729Z" fill="#F3F3F3"/>
<path d="M827.83 52.0028L856.661 103.991H799L827.83 52.0028Z" fill="#F3F3F3"/>
<path d="M1086.18 103.99L1057.35 52.0025L1115.01 52.0025L1086.18 103.99Z" fill="#EAEAE9"/>
<path d="M1029.17 207.996L1000.34 156.009L1058 156.009L1029.17 207.996Z" fill="#EAEAE9"/>
<path d="M1144.18 207.996L1115.35 156.009L1173.01 156.009L1144.18 207.996Z" fill="#EAEAE9"/>
<path d="M914.09 207.996L885.259 156.009L942.92 156.009L914.09 207.996Z" fill="#EAEAE9"/>
<path d="M971.631 104.161L942.8 52.1729L1000.46 52.173L971.631 104.161Z" fill="#EAEAE9"/>
<path d="M856.545 103.991L827.714 52.0028L885.375 52.0028L856.545 103.991Z" fill="#EAEAE9"/>
<path d="M1000.46 52.003L971.63 0.0152322L1029.29 0.0152373L1000.46 52.003Z" fill="#EAEAE9"/>
<path d="M1057.67 51.9877L1028.84 -0.000127111L1086.5 -0.00012207L1057.67 51.9877Z" fill="#EAEAE9"/>
<path d="M1115.33 51.9878L1086.5 -2.7929e-05L1144.16 -2.28882e-05L1115.33 51.9878Z" fill="#EAEAE9"/>
<path d="M1173.01 51.9878L1144.18 -2.65609e-05L1201.84 -2.152e-05L1173.01 51.9878Z" fill="#EAEAE9"/>
<path d="M942.92 52.003L914.089 0.0152322L971.75 0.0152373L942.92 52.003Z" fill="#EAEAE9"/>
<path d="M885.492 52.003L856.662 0.0152322L914.322 0.0152373L885.492 52.003Z" fill="#EAEAE9"/>
<path d="M1115.01 52.0026L1143.84 103.99H1086.18L1115.01 52.0026Z" fill="#F3F3F3"/>
<path d="M1058 156.009L1086.83 207.996H1029.17L1058 156.009Z" fill="#F3F3F3"/>
<path d="M1173.01 156.009L1201.84 207.996H1144.18L1173.01 156.009Z" fill="#F3F3F3"/>
<path d="M1173.01 52.0026L1201.84 103.99H1144.18L1173.01 52.0026Z" fill="#F3F3F3"/>
<path d="M942.918 156.009L971.749 207.996H914.088L942.918 156.009Z" fill="#F3F3F3"/>
<path d="M1000.46 52.1729L1029.29 104.161H971.631L1000.46 52.1729Z" fill="#F3F3F3"/>
<path d="M885.375 52.0028L914.206 103.991H856.545L885.375 52.0028Z" fill="#F3F3F3"/>
<path d="M856.662 0L885.493 51.9878H827.832L856.662 0Z" fill="#F3F3F3"/>
<path d="M914.323 0L943.153 51.9878H885.492L914.323 0Z" fill="#F3F3F3"/>
<path d="M1028.8 0L1057.64 51.9878H999.975L1028.8 0Z" fill="#F3F3F3"/>
<path d="M1201.83 0.0121841L1230.66 52H1173L1201.83 0.0121841Z" fill="#F3F3F3"/>
<path d="M1115.01 155.993L1086.18 104.006L1143.84 104.006L1115.01 155.993Z" fill="#EAEAE9"/>
<path d="M1058.01 260L1029.18 208.012L1086.84 208.012L1058.01 260Z" fill="#EAEAE9"/>
<path d="M1173.01 260L1144.18 208.012L1201.84 208.012L1173.01 260Z" fill="#EAEAE9"/>
<path d="M942.838 260L914.007 208.012L971.668 208.012L942.838 260Z" fill="#EAEAE9"/>
<path d="M1173.13 155.993L1144.3 104.006L1201.96 104.006L1173.13 155.993Z" fill="#EAEAE9"/>
<path d="M1000.46 155.993L971.63 104.006L1029.29 104.006L1000.46 155.993Z" fill="#EAEAE9"/>
<path d="M885.375 155.994L856.544 104.006L914.205 104.006L885.375 155.994Z" fill="#EAEAE9"/>
<path d="M1086.3 104.006L1115.13 155.993L1057.46 155.993L1086.3 104.006Z" fill="#F3F3F3"/>
<path d="M1029.29 208.012L1058.12 259.999L1000.46 259.999L1029.29 208.012Z" fill="#F3F3F3"/>
<path d="M1144.3 208.012L1173.13 260L1115.47 260L1144.3 208.012Z" fill="#F3F3F3"/>
<path d="M914.205 208.012L943.036 260L885.375 260L914.205 208.012Z" fill="#F3F3F3"/>
<path d="M971.748 104.006L1000.58 155.994L942.918 155.994L971.748 104.006Z" fill="#F3F3F3"/>
<path d="M856.662 104.006L885.493 155.994L827.832 155.994L856.662 104.006Z" fill="#F3F3F3"/>
<path d="M1086.47 5.04086e-06L1115.3 51.9878L1057.64 51.9878L1086.47 5.04086e-06Z" fill="#F3F3F3"/>
<path d="M1144.17 0.0123341L1173 52.0002L1115.34 52.0001L1144.17 0.0123341Z" fill="#F3F3F3"/>
<path d="M1057.46 155.993L1028.63 104.006L1086.29 104.006L1057.46 155.993Z" fill="#EAEAE9"/>
<path d="M1000.46 260L971.63 208.012L1029.29 208.012L1000.46 260Z" fill="#EAEAE9"/>
<path d="M1115.47 260L1086.64 208.012L1144.3 208.012L1115.47 260Z" fill="#EAEAE9"/>
<path d="M885.375 260L856.544 208.012L914.205 208.012L885.375 260Z" fill="#EAEAE9"/>
<path d="M942.918 155.993L914.087 104.006L971.748 104.006L942.918 155.993Z" fill="#EAEAE9"/>
<path d="M827.83 155.994L798.999 104.006L856.66 104.006L827.83 155.994Z" fill="#EAEAE9"/>
<path d="M827.83 52.003L798.999 0.0152322L856.66 0.0152373L827.83 52.003Z" fill="#EAEAE9"/>
<path d="M827.83 260L798.999 208.012L856.66 208.012L827.83 260Z" fill="#EAEAE9"/>
</g>
</g>
<defs>
<linearGradient id="paint0_linear_24_19265" x1="0" y1="130" x2="1209" y2="130" gradientUnits="userSpaceOnUse">
<stop stop-opacity="0"/>
<stop offset="1" stop-color="#737373"/>
</linearGradient>
<clipPath id="clip0_24_19265">
<path d="M0 19.2C0 12.4794 0 9.11905 1.30792 6.55211C2.4584 4.29417 4.29417 2.4584 6.55211 1.30792C9.11905 0 12.4794 0 19.2 0H1180.8C1187.52 0 1190.88 0 1193.45 1.30792C1195.71 2.4584 1197.54 4.29417 1198.69 6.55211C1200 9.11905 1200 12.4794 1200 19.2V240.8C1200 247.521 1200 250.881 1198.69 253.448C1197.54 255.706 1195.71 257.542 1193.45 258.692C1190.88 260 1187.52 260 1180.8 260H19.2C12.4794 260 9.11905 260 6.55211 258.692C4.29417 257.542 2.4584 255.706 1.30792 253.448C0 250.881 0 247.521 0 240.8V19.2Z" fill="white"/>
</clipPath>
</defs>
</svg>
